<svg xmlns="http://www.w3.org/2000/svg" xmlns:xlink="http://www.w3.org/1999/xlink" viewBox="0,0,256,256" width="480px" height="480px"><g fill="#ffffff" fill-rule="nonzero" stroke="none" stroke-width="1" stroke-linecap="butt" stroke-linejoin="miter" stroke-miterlimit="10" stroke-dasharray="" stroke-dashoffset="0" font-family="none" font-weight="none" font-size="none" text-anchor="none" style="mix-blend-mode: normal"><g transform="scale(3.2,3.2)"><path d="M56.21289,9.03711c-1.654,-0.045 -3.13848,0.54356 -4.27148,1.72656c-0.908,0.96 -1.35231,2.00352 -1.32031,3.10352c0.07,2.378 2.27131,4.4487 4.82031,6.8457c0.726,0.682 1.47627,1.38705 2.19727,2.12305c3.953,4.019 6.3125,9.44658 6.3125,14.51758c0,3.59 -1.51411,7.05683 -2.41211,8.79883c-1.091,-1.366 -1.73516,-2.8532 -2.41016,-4.4082l-0.13867,-0.31445c-0.008,-0.027 -0.01634,-0.05603 -0.02734,-0.08203c-1.018,-2.538 -1.74875,-3.55328 -2.59375,-4.61328c-2.64,-3.347 -7.62886,-3.55119 -12.13086,-0.49219c-2.333,1.587 -5.28706,4.93838 -8.41406,8.48437c-3.094,3.509 -6.28044,7.12352 -8.64844,8.72852c-1.384,-4.197 -2.3462,-10.62069 -0.1582,-18.92969c2.479,-9.41 3.30187,-17.90567 2.04688,-21.13867c-1.049,-2.673 -3.07173,-4.22758 -5.55273,-4.26758c-2.628,-0.018 -5.62877,1.52209 -8.50977,4.37109c-5.075,5.018 -11.00195,15.5837 -11.00195,28.8457c0,0.414 0.01716,0.82822 0.03516,1.19922c0,0.274 0.01778,0.54669 0.05078,0.80469c0.003,0.186 0.01616,0.35264 0.03516,0.55664c0.009,0.121 0.02311,0.24042 0.03711,0.35742c0.011,0.091 0.02216,0.18017 0.03516,0.32617c0.07,0.537 0.15581,1.09019 0.25781,1.61719c0.071,0.385 0.14166,0.7528 0.22266,1.0918c0.086,0.412 0.18692,0.80866 0.29492,1.22266c0.108,0.403 0.46289,1.52539 0.46289,1.52539c0.007,0.022 0.01348,0.04345 0.02148,0.06445c0.048,0.121 1.01953,2.49508 1.51953,3.58008c0.275,0.549 0.56538,1.08161 0.85938,1.59961c0.07,0.122 0.5082,0.83741 0.6582,1.06641c0.113,0.173 0.52727,0.79025 0.69727,1.03125c0.32,0.449 0.76463,1.05119 1.01563,1.36719c0.14,0.178 0.50233,0.63562 0.61133,0.76563c0.239,0.284 0.48637,0.56008 0.73438,0.83008c0.218,0.287 0.6418,0.72448 1.4668,1.52148c0.34,0.323 0.68116,0.64641 1.03516,0.94141c0.107,0.116 0.21039,0.19895 0.27539,0.25195l0.0918,0.08008c0.119,0.108 0.24109,0.21659 0.37109,0.30859c0.357,0.305 0.71436,0.59161 1.06836,0.84961c0.81,0.624 1.67578,1.21905 2.55078,1.74805c0.248,0.16 0.51434,0.3217 0.77734,0.4707l0.15234,0.08398c0.151,0.085 0.3083,0.1718 0.4043,0.2168c0.317,0.186 0.63387,0.35447 0.92187,0.48047c1.18,0.599 2.44891,1.12373 3.75391,1.55273c0.298,0.105 0.59694,0.19288 0.96094,0.29688c0.067,0.016 0.13327,0.03373 0.19727,0.05273l0.20117,0.05664c0.269,0.072 0.53695,0.14355 0.75195,0.18555c0.349,0.091 0.70019,0.16398 0.99219,0.20898c0.258,0.056 0.49664,0.09267 0.80664,0.13867c0.199,0.033 0.38758,0.06327 0.51758,0.07227c0.235,0.037 0.45225,0.05431 0.65625,0.07031c0.273,0.036 0.52727,0.05422 0.82227,0.07422c0.398,0.017 0.79536,0.0332 1.19336,0.0332c1.037,0 2.06773,-0.12047 3.05273,-0.35547c0.339,-0.077 0.67903,-0.17149 0.95703,-0.27148c1.502,-0.46 2.91813,-1.18584 4.32813,-2.21484c0.748,-0.544 1.48712,-1.16819 2.20313,-1.86719c0.479,-0.479 0.94848,-0.98495 1.39648,-1.50195c0.262,-0.302 0.504,-0.61374 0.75,-0.92773l0.13867,-0.17578c0.038,-0.048 0.12064,-0.16958 0.18164,-0.26758l0.08008,-0.10156c2.26,-3.005 3.77058,-6.21108 4.64258,-8.58008c2.734,4.993 6.57555,7.42969 11.68555,7.42969c7.744,0 15.06641,-11.8908 15.06641,-24.4668c0,-9.311 -4.15277,-16.1855 -7.63477,-20.3125c-4.583,-5.452 -8.67134,-8.27472 -12.15234,-8.38672zM56.14648,11.03906c2.808,0.091 6.60445,2.81678 10.68945,7.67578c3.268,3.871 7.16406,10.31448 7.16406,19.02148c0,0.96708 -0.06213,1.92948 -0.15234,2.88672c-0.3277,0.04563 -0.62991,0.23418 -0.77734,0.55469c-0.24,0.5 -0.01953,1.09008 0.48047,1.33008c0.02086,0.00894 0.04164,0.00606 0.0625,0.01367c-1.46802,9.48708 -7.02187,17.68055 -12.67969,17.67969c-5.025,0 -8.50989,-2.71211 -10.96289,-8.53711c-0.168,-0.399 -0.57391,-0.65542 -1.00391,-0.60742c-0.431,0.036 -0.79062,0.34463 -0.89062,0.76563c-0.429,1.812 -2.03917,6.30089 -5.07617,10.33789l-0.07617,0.09766c-0.032,0.039 -0.06875,0.09567 -0.09375,0.13867c-0.018,0.03 -0.04959,0.0778 -0.05859,0.0918l-0.14062,0.17969c-0.224,0.286 -0.44359,0.5707 -0.68359,0.8457c-0.05419,0.06261 -0.11316,0.11756 -0.16797,0.17969c-0.23765,-0.31273 -0.6478,-0.47388 -1.04883,-0.36719c-0.54,0.14 -0.8607,0.6907 -0.7207,1.2207c0.06511,0.24415 0.21694,0.43648 0.41016,0.56836c-0.56737,0.53554 -1.1489,1.03347 -1.74023,1.46289c-1.228,0.897 -2.4513,1.52464 -3.7793,1.93164c-0.246,0.088 -0.50625,0.1587 -0.78125,0.2207c-1.199,0.289 -2.51259,0.32639 -3.68359,0.27539c-0.228,-0.014 -0.44123,-0.02941 -0.74023,-0.06641c-0.183,-0.015 -0.35433,-0.02941 -0.61133,-0.06641c-0.146,-0.013 -0.28083,-0.03655 -0.42383,-0.06055c-0.009,-0.001 -0.09356,-0.01462 -0.10156,-0.01562c-0.209,-0.029 -0.40197,-0.05823 -0.66797,-0.11523c-0.284,-0.044 -0.56825,-0.10341 -0.90625,-0.19141c-0.231,-0.047 -0.46298,-0.10883 -0.70898,-0.17383l-0.14453,-0.04102c-0.1,-0.028 -0.20386,-0.05736 -0.25586,-0.06836c-0.264,-0.077 -0.5295,-0.15391 -0.8125,-0.25391c-1.229,-0.403 -2.40302,-0.88984 -3.54102,-1.46484c-0.264,-0.118 -0.51417,-0.24964 -0.82617,-0.43164c-0.13,-0.064 -0.25881,-0.13608 -0.38281,-0.20508l-0.15234,-0.08398c-0.217,-0.124 -0.44941,-0.26392 -0.69141,-0.41992c-0.836,-0.505 -1.64106,-1.05734 -2.41406,-1.65234c-0.346,-0.253 -0.67586,-0.51973 -1.00586,-0.80273c-0.031,-0.026 -0.06366,-0.05027 -0.09766,-0.07227c-0.069,-0.046 -0.12941,-0.10706 -0.19141,-0.16406l-0.15625,-0.13672c-0.029,-0.024 -0.06022,-0.04659 -0.07422,-0.05859c-0.044,-0.054 -0.09149,-0.10344 -0.14649,-0.14844c-0.34,-0.278 -0.66586,-0.58911 -1.00586,-0.91211c-0.408,-0.394 -1.13444,-1.1565 -1.27344,-1.3125c-0.016,-0.021 -0.03283,-0.0425 -0.04883,-0.0625c-0.239,-0.259 -0.47799,-0.52483 -0.70899,-0.79883c-0.104,-0.123 -0.439,-0.55016 -0.625,-0.78516c-0.188,-0.236 -0.60339,-0.7978 -0.90039,-1.2168c-0.159,-0.225 -0.54634,-0.8087 -0.65234,-0.9707c-0.135,-0.207 -0.5337,-0.85198 -0.5957,-0.95898c-0.275,-0.486 -0.54992,-0.98856 -0.79492,-1.47656c-0.444,-0.964 -1.32617,-3.11092 -1.45117,-3.41992c-0.06,-0.189 -0.33573,-1.06516 -0.42773,-1.41016c-0.094,-0.364 -0.19039,-0.72677 -0.27539,-1.13477c-0.08,-0.332 -0.14203,-0.66444 -0.20703,-1.02344c-0.096,-0.496 -0.17537,-1.00912 -0.23437,-1.45312c-0.01,-0.123 -0.02506,-0.24137 -0.03906,-0.35937c-0.011,-0.09 -0.02216,-0.18089 -0.03516,-0.33789c-0.012,-0.135 -0.02539,-0.26116 -0.02539,-0.41016c0,-0.047 -0.00377,-0.09363 -0.00977,-0.14062c-0.027,-0.189 -0.04002,-0.39077 -0.04102,-0.63477c-0.016,-0.385 -0.03125,-0.7712 -0.03125,-1.1582c0,-12.646 5.6053,-22.67687 10.4043,-27.42188c2.477,-2.45 4.97139,-3.79492 7.02539,-3.79492h0.05273c1.649,0.026 2.9688,1.09209 3.7168,2.99609c0.925,2.382 0.49386,9.98339 -2.11914,19.90039c-2.527,9.593 -1.05881,16.85577 0.61719,21.25977c0.00702,0.01838 0.0232,0.03098 0.03125,0.04883c0.01028,0.02358 0.00921,0.04918 0.02148,0.07227c0.04572,0.08382 0.10293,0.15764 0.16797,0.22266c0.08117,0.08115 0.17722,0.14064 0.2793,0.18945c0.02135,0.01049 0.03641,0.03008 0.05859,0.03906c0.02197,0.00882 0.04601,0.00449 0.06836,0.01172c0.09733,0.03152 0.19765,0.05336 0.30078,0.05469c0.00528,0.00007 0.01034,0.00197 0.01563,0.00195c0.02132,-0.00017 0.04124,-0.00433 0.0625,-0.00586c0.11998,-0.00616 0.23729,-0.03261 0.35156,-0.08398c0.01802,-0.0081 0.03693,-0.01006 0.05469,-0.01953c0.0163,-0.00914 0.02541,-0.02527 0.04102,-0.03516c2.78424,-1.35156 6.3722,-5.41365 10.17188,-9.72266c2.907,-3.297 5.91406,-6.70734 8.03906,-8.15234c3.651,-2.48 7.44345,-2.44892 9.43945,0.08008c0.23721,0.29785 0.46016,0.60112 0.68164,0.92383c-0.25879,0.14736 -0.45565,0.39311 -0.50195,0.70508c-0.09,0.551 0.28984,1.06063 0.83984,1.14063c0.05,0.01 0.10039,0.01172 0.15039,0.01172c0.17755,0 0.3401,-0.06083 0.48828,-0.14648c0.19052,0.39926 0.39104,0.85219 0.60938,1.39258c0.013,0.046 0.02788,0.08981 0.04688,0.13281l0.17773,0.4043c0.882,2.03 1.79219,4.12834 3.74219,6.02734c0.0101,0.00991 0.02471,0.01206 0.03516,0.02148c0.01553,0.01399 0.02246,0.03375 0.03906,0.04688c0.19,0.15 0.40109,0.2197 0.62109,0.2207c0.02573,0 0.04868,-0.01372 0.07422,-0.01562c0.0147,-0.00106 0.02823,0.00561 0.04297,0.00391c0.09454,-0.01075 0.18369,-0.03819 0.26953,-0.07422c0.04371,-0.0182 0.08588,-0.03605 0.12695,-0.06055c0.00939,-0.00561 0.01815,-0.01167 0.02734,-0.01758c0.09069,-0.05821 0.17665,-0.12755 0.24805,-0.2168c0.01467,-0.01855 0.0181,-0.04129 0.03125,-0.06055c0.00695,-0.01006 0.01879,-0.01504 0.02539,-0.02539c0.139,-0.216 3.37305,-5.36111 3.37305,-11.03711c0,-5.584 -2.57377,-11.53497 -6.88477,-15.91797c-0.739,-0.754 -1.50891,-1.47969 -2.25391,-2.17969c-2.132,-2.005 -4.14641,-3.89927 -4.19141,-5.44727c-0.016,-0.557 0.23653,-1.10302 0.76953,-1.66602c0.736,-0.767 1.64581,-1.12252 2.75781,-1.10352zM52.56836,40.75781c-0.25125,0.04625 -0.48367,0.18797 -0.63867,0.41797c-0.32,0.451 -0.2,1.07963 0.25,1.39063c0.18,0.119 0.37031,0.18069 0.57031,0.17969c0.32,0 0.63031,-0.15945 0.82031,-0.43945c0.32,-0.451 0.2,-1.08062 -0.25,-1.39062c-0.23,-0.155 -0.5007,-0.20445 -0.75195,-0.1582zM71.83203,44.0957c-0.2525,0.045 -0.48758,0.18516 -0.64258,0.41016c-0.31,0.46 -0.2,1.08062 0.25,1.39063c0.18,0.12 0.38031,0.17969 0.57031,0.17969c0.32,0 0.63008,-0.14969 0.83008,-0.42969c0.31,-0.45 0.20023,-1.07962 -0.25977,-1.39062c-0.225,-0.155 -0.49555,-0.20516 -0.74805,-0.16016zM50.90039,44.29102c-0.38813,0.00258 -0.75266,0.23198 -0.91016,0.61523c-0.21,0.52 0.03883,1.10055 0.54883,1.31055c0.12,0.049 0.25086,0.07031 0.38086,0.07031c0.39,0 0.76992,-0.22914 0.91992,-0.61914c0.21,-0.51 -0.03078,-1.09078 -0.55078,-1.30078c-0.1275,-0.0525 -0.2593,-0.07703 -0.38867,-0.07617zM69.45313,46.98633c-0.25125,-0.04512 -0.51719,0.00516 -0.74219,0.16016v0.00977c-0.45,0.31 -0.56,0.94062 -0.25,1.39063c0.2,0.28 0.50836,0.41992 0.81836,0.41992c0.2,0 0.40008,-0.04969 0.58008,-0.17969c0.45,-0.311 0.56023,-0.94063 0.24023,-1.39062c-0.16,-0.2245 -0.39523,-0.36503 -0.64648,-0.41016zM65.56055,48.00781c-0.55,-0.03 -1.02078,0.39922 -1.05078,0.94922c-0.02,0.55 0.40117,1.02078 0.95117,1.05078h0.05859c0.52,0 0.96023,-0.42117 0.99023,-0.95117c0.03,-0.55 -0.38922,-1.01883 -0.94922,-1.04883zM49.52148,48.09375c-0.38625,0.05625 -0.71726,0.33719 -0.82227,0.74219c-0.15,0.531 0.17094,1.0807 0.71094,1.2207c0.08,0.021 0.17,0.0313 0.25,0.0293c0.45,0 0.8507,-0.30024 0.9707,-0.74023c0.14,-0.54 -0.18094,-1.08147 -0.71094,-1.23047c-0.135,-0.035 -0.26969,-0.04023 -0.39844,-0.02148zM11.17969,54.0918c-0.38719,-0.02653 -0.77149,0.17742 -0.95899,0.54492c-0.25,0.49 -0.05055,1.08984 0.43945,1.33984c0.15,0.08 0.29922,0.11133 0.44922,0.11133c0.37,0 0.72063,-0.20078 0.89063,-0.55078c0.25,-0.49 0.06055,-1.08984 -0.43945,-1.33984c-0.1225,-0.0625 -0.2518,-0.09662 -0.38086,-0.10547zM23.03711,55.20117c-0.12734,-0.0243 -0.26148,-0.02414 -0.39648,0.00586c-0.54,0.11 -0.89148,0.64945 -0.77148,1.18945c0.1,0.46 0.5107,0.78025 0.9707,0.78125c0.07,0 0.1407,0.00047 0.2207,-0.01953c0.54,-0.111 0.87977,-0.64164 0.75977,-1.18164c-0.0825,-0.40575 -0.40117,-0.7025 -0.7832,-0.77539zM15.08008,55.35547c-0.54,-0.099 -1.06016,0.26078 -1.16016,0.80078c-0.11,0.54 0.25102,1.06892 0.79102,1.16992c0.06,0.01 0.12945,0.02053 0.18945,0.01953c0.47,0 0.89047,-0.33936 0.98047,-0.81836c0.1,-0.54 -0.25078,-1.06188 -0.80078,-1.17187zM18.84961,55.64648v0.00977c-0.55,0.01 -0.97875,0.47148 -0.96875,1.02148c0.01,0.54 0.46,0.96875 1,0.96875h0.01953c0.56,-0.01 0.99047,-0.46953 0.98047,-1.01953c-0.02,-0.559 -0.48125,-0.99047 -1.03125,-0.98047zM27.77734,56.74609c-0.12875,0.0135 -0.25695,0.05334 -0.37695,0.12109c-0.49,0.26 -0.67016,0.87061 -0.41016,1.34961c0.19,0.339 0.53063,0.52053 0.89063,0.51953c0.16,0 0.31875,-0.02938 0.46875,-0.10937c0.48,-0.27 0.67039,-0.88133 0.40039,-1.36133c-0.195,-0.36675 -0.58641,-0.56003 -0.97266,-0.51953zM30.20703,60.0332c-0.255,-0.01625 -0.51656,0.06414 -0.72656,0.24414c-0.41,0.369 -0.44984,0.9992 -0.08984,1.4082c0.2,0.231 0.47,0.3418 0.75,0.3418c0.24,0 0.47016,-0.08 0.66016,-0.25c0.42,-0.36 0.45984,-1.00016 0.08984,-1.41016c-0.18,-0.205 -0.42859,-0.31773 -0.68359,-0.33398zM33.30273,62.58008c-0.38625,-0.03933 -0.77766,0.14813 -0.97266,0.51563c-0.27,0.481 -0.08937,1.09056 0.39063,1.35156c0.16,0.09 0.31852,0.12891 0.47852,0.12891c0.36,0 0.70086,-0.18953 0.88086,-0.51953c0.27,-0.489 0.08961,-1.08937 -0.40039,-1.35937c-0.12,-0.06525 -0.2482,-0.10408 -0.37695,-0.11719zM37.08984,63.6875c-0.55,-0.04 -1.03031,0.36992 -1.07031,0.91992c-0.04,0.55 0.36992,1.03031 0.91992,1.07031c0.03,0 0.05008,0.00877 0.08008,0.00977c0.51,0 0.95023,-0.39969 0.99023,-0.92969c0.04,-0.549 -0.36992,-1.03031 -0.91992,-1.07031z"></path></g></g></svg>